<svg xmlns="http://www.w3.org/2000/svg" aria-hidden="true" style="position:absolute;width:0;height:0;overflow:hidden"><defs><symbol id="icon-play" viewBox="0 0 32 32"><path fill="#e9e9e9" d="M0 0h32v32H0V0z" style="fill:var(--color1, #e9e9e9)"/><path fill="#fafafa" d="M-263.273-2458.182h558.545V2880h-558.545v-5338.182z" style="fill:var(--color2, #fafafa)"/><path d="M-196.364-129.455h424.727c6.025 0 10.909 4.884 10.909 10.909v269.091c0 6.025-4.884 10.909-10.909 10.909h-424.727c-6.025 0-10.909-4.884-10.909-10.909v-269.091c0-6.025 4.884-10.909 10.909-10.909z" style="fill:var(--color3, #000)"/><path fill="#111" d="M-196.364-129.455h424.727c6.025 0 10.909 4.884 10.909 10.909v269.091c0 6.025-4.884 10.909-10.909 10.909h-424.727c-6.025 0-10.909-4.884-10.909-10.909v-269.091c0-6.025 4.884-10.909 10.909-10.909z" opacity=".4" style="fill:var(--color4, #111)"/><path fill="#f5f4f4" d="M10.909 24V8.727l14.545 7.636-14.545 7.636z" style="fill:var(--color5, #f5f4f4)"/><path fill="none" stroke="#fff" stroke-width=".727" d="M31.636 16c0 8.636-7.001 15.636-15.636 15.636S.364 24.635.364 16C.364 7.364 7.365.364 16 .364S31.636 7.365 31.636 16z" style="stroke:var(--color6, #fff)"/></symbol><symbol id="icon-Group" viewBox="0 0 32 32"><path fill="#fd9222" d="M16 .762C7.619.762.762 7.619.762 16S7.619 31.238 16 31.238 31.238 24.381 31.238 16 24.381.762 16 .762zm0 27.428C9.295 28.19 3.809 22.704 3.809 16S9.295 3.809 16 3.809c6.705 0 12.19 5.486 12.19 12.191S22.704 28.19 16 28.19z" style="fill:var(--color7, #fd9222)"/><path fill="#fd9222" d="M17.981 14.476h-3.962c-.762 0-1.371-.61-1.371-1.371s.61-1.371 1.371-1.371h5.638c.914 0 1.524-.61 1.524-1.524s-.61-1.524-1.524-1.524h-2.133V7.315c0-.914-.61-1.524-1.524-1.524s-1.524.61-1.524 1.524v1.371h-.457c-2.438 0-4.419 1.981-4.419 4.419s1.981 4.419 4.419 4.419h3.809c.762 0 1.371.61 1.371 1.371s-.61 1.371-1.371 1.371H12.19c-.914 0-1.524.61-1.524 1.524s.61 1.524 1.524 1.524h2.286v1.371c0 .914.61 1.524 1.524 1.524s1.524-.61 1.524-1.524v-1.371h.457c2.438 0 4.419-1.981 4.419-4.419s-1.981-4.419-4.419-4.419z" style="fill:var(--color7, #fd9222)"/></symbol><symbol id="icon-la_utensil-spoon" viewBox="0 0 32 32"><path fill="#fd9222" d="M15.452 14.106a5.154 5.154 0 0 1-1.177-3.282c0-4.324 5.181-8.642 10.362-8.642a5.183 5.183 0 0 1 5.181 5.182c0 5.182-4.318 10.364-8.646 10.364a5.15 5.15 0 0 1-3.281-1.177L5.133 29.312a1.73 1.73 0 0 1-2.445-2.445l12.764-12.761z" style="fill:var(--color7, #fd9222)"/></symbol><symbol id="icon-fluent-emoji-high-contrast_chocolate-bar" viewBox="0 0 32 32"><path fill="#111" d="m13.822 2.413 7.527 7.536.08-.08a.856.856 0 0 1 1.184-.013l.873.873c.305.305.315.77.083 1.094l-.004.007-.143.192 6.16 6.16c.55.55.55 1.43 0 1.98l-9.43 9.43c-.55.55-1.43.55-1.98 0l-4.447-4.447a.853.853 0 0 1-.612.317.842.842 0 0 1-.644-.246l-2.6-2.6a.856.856 0 0 1-.013-1.184l.006-.007.077-.076-7.527-7.527c-.55-.55-.55-1.43 0-1.98l9.43-9.43c.55-.55 1.43-.55 1.98 0v.001zm6.582 8.48-1.756-1.755a.59.59 0 0 0-.85 0l-3.58 3.58a.621.621 0 0 0-.179.43.602.602 0 0 0 .179.43l1.749 1.749.61-.61-1.565-1.565 3.21-3.22 1.569 1.574.613-.613zm-5.076 5.072-1.754-1.754a.59.59 0 0 0-.85 0l-3.59 3.59c-.24.23-.24.61 0 .85l1.752 1.752.616-.616-1.57-1.564 3.22-3.21 1.564 1.563.612-.611zM8.822 8.193l3.58 3.58c.24.24.62.24.85-.01l3.58-3.58a.57.57 0 0 0 .18-.42h.01c0-.15-.06-.31-.18-.43l-3.58-3.58a.602.602 0 0 0-.86 0l-3.58 3.59c-.24.23-.24.61 0 .85zm-5.07 5.07 3.58 3.58c.24.24.62.24.85 0l3.58-3.58a.578.578 0 0 0 .18-.43h.01c0-.16-.06-.31-.18-.43l-3.58-3.58a.59.59 0 0 0-.85 0l-3.59 3.59c-.24.23-.24.61 0 .85zm6.933 8.754 2.362 2.363 9.636-13.04-.655-.655-11.343 11.332z" style="fill:var(--color4, #111)"/><path fill="#fd9222" d="m13.822 2.413 7.527 7.536.08-.08a.856.856 0 0 1 1.184-.013l.873.873c.305.305.315.77.083 1.094l-.004.007-.143.192 6.16 6.16c.55.55.55 1.43 0 1.98l-9.43 9.43c-.55.55-1.43.55-1.98 0l-4.447-4.447a.853.853 0 0 1-.612.317.842.842 0 0 1-.644-.246l-2.6-2.6a.856.856 0 0 1-.013-1.184l.006-.007.077-.076-7.527-7.527c-.55-.55-.55-1.43 0-1.98l9.43-9.43c.55-.55 1.43-.55 1.98 0v.001zm6.582 8.48-1.756-1.755a.59.59 0 0 0-.85 0l-3.58 3.58a.621.621 0 0 0-.179.43.602.602 0 0 0 .179.43l1.749 1.749.61-.61-1.565-1.565 3.21-3.22 1.569 1.574.613-.613zm-5.076 5.072-1.754-1.754a.59.59 0 0 0-.85 0l-3.59 3.59c-.24.23-.24.61 0 .85l1.752 1.752.616-.616-1.57-1.564 3.22-3.21 1.564 1.563.612-.611zM8.822 8.193l3.58 3.58c.24.24.62.24.85-.01l3.58-3.58a.57.57 0 0 0 .18-.42h.01c0-.15-.06-.31-.18-.43l-3.58-3.58a.602.602 0 0 0-.86 0l-3.58 3.59c-.24.23-.24.61 0 .85zm-5.07 5.07 3.58 3.58c.24.24.62.24.85 0l3.58-3.58a.578.578 0 0 0 .18-.43h.01c0-.16-.06-.31-.18-.43l-3.58-3.58a.59.59 0 0 0-.85 0l-3.59 3.59c-.24.23-.24.61 0 .85zm6.933 8.754 2.362 2.363 9.636-13.04-.655-.655-11.343 11.332z" style="fill:var(--color7, #fd9222)"/></symbol><symbol id="icon-fi-rr-angle-small-left" viewBox="0 0 32 32"><path fill="#fd9222" d="M16.947 17.867a1.334 1.334 0 0 1-1.894 0l-6.107-6.12a1.334 1.334 0 1 0-1.894 1.88l6.12 6.12a4.001 4.001 0 0 0 5.654 0l6.12-6.12a1.337 1.337 0 0 0-.434-2.172 1.331 1.331 0 0 0-1.46.292l-6.107 6.12z" style="fill:var(--color7, #fd9222)"/></symbol><symbol id="icon-twitter" viewBox="0 0 30 32"><path stroke-linecap="round" stroke-linejoin="round" stroke-width="2.286" d="M29.206 4.572a13.83 13.83 0 0 1-3.987 1.943 5.684 5.684 0 0 0-6.321-1.581c-1.089.416-2.024 1.155-2.678 2.12s-.997 2.106-.982 3.271v1.27c-2.232.058-4.443-.437-6.437-1.441s-4.344-3.393-5.627-5.22c0 0-4.444 12.337 6.984 17.416a14.787 14.787 0 0 1-8.889 2.54c11.429 6.349 25.397 0 25.397-14.603a5.644 5.644 0 0 0-.102-1.054 9.806 9.806 0 0 0 2.641-4.66z"/></symbol><symbol id="icon-instagram" viewBox="0 0 30 32"><path stroke-linecap="round" stroke-linejoin="round" stroke-width="2.286" d="M21.587 3.302H8.889A6.349 6.349 0 0 0 2.54 9.651v12.698a6.349 6.349 0 0 0 6.349 6.349h12.698a6.349 6.349 0 0 0 6.349-6.349V9.651a6.349 6.349 0 0 0-6.349-6.349z"/><path stroke-linecap="round" stroke-linejoin="round" stroke-width="2.286" d="M20.317 15.2a5.076 5.076 0 0 1-2.741 5.282 5.08 5.08 0 1 1 2.741-5.282zM22.222 9.016h.015"/></symbol><symbol id="icon-facebook" viewBox="0 0 30 32"><path stroke-linecap="round" stroke-linejoin="round" stroke-width="2.286" d="M22.857 3.302h-3.81a6.35 6.35 0 0 0-6.35 6.35v3.81h-3.81v5.079h3.81V28.7h5.079V18.541h3.81l1.27-5.079h-5.079v-3.81a1.27 1.27 0 0 1 1.27-1.27h3.81V3.303z"/></symbol><symbol id="icon-arrow" viewBox="0 0 32 32"><path fill="none" stroke="#fafafa" stroke-linecap="round" stroke-linejoin="round" stroke-width="1.333" d="M9.143 16h13.714m0 0-3.429-3.429M22.857 16l-3.429 3.429M16 30.857c8.205 0 14.857-6.652 14.857-14.857S24.205 1.143 16 1.143C7.795 1.143 1.143 7.795 1.143 16S7.795 30.857 16 30.857z" style="stroke:var(--color2, #fafafa)"/></symbol></defs></svg>